# xmcd CD database file
# Copyright (C) 1996 Ti Kan
#
# Track frame offsets:
# 	150
# 	23505
# 	44710
# 	76502
# 	95192
# 	105910
# 	128890
# 	141027
# 	192432
# 	205882
# 	223235
# 	233995
# 	245897
# 	259897
# 	277632
# 	290000
#
# Disc length: 4282 seconds
#
# Revision: 1
# Processed by: cddbd v1.4b41PL1 Copyright (c) Steve Scherf et al.
# Submitted via: DiscPlay 3.4.1
#
DISCID=ee10b810
DTITLE=Reverend Gary Davis - Blues And Ragtime
DYEAR=1900
DGENRE=
TTITLE0=Walkin' Dog Blues
TTITLE1=Cincinnati Flow Rag
TTITLE2=She's Funny That Way
TTITLE3=Whoopin' Blues
TTITLE4=Twelve Sticks
TTITLE5=Children Of Zion
TTITLE6=Buck Rag
TTITLE7=Hesitation Blues
TTITLE8=C-Rag
TTITLE9=Baby, Let Me Lay It On You
TTITLE10=Cocaine Blues
TTITLE11=Buck Dance
TTITLE12=Candyman
TTITLE13=Wall Hollow Blues
TTITLE14=Little Boy, Little Boy Who Made Your Britches
TTITLE15=Whistlin' Blues
EXTD=
EXTT0=
EXTT1=
EXTT2=
EXTT3=
EXTT4=
EXTT5=
EXTT6=
EXTT7=
EXTT8=
EXTT9=
EXTT10=
EXTT11=
EXTT12=
EXTT13=
EXTT14=
EXTT15=
PLAYORDER=
